<svg width="100%" viewBox="0 0 680 420" role="img" xmlns="http://www.w3.org/2000/svg">
<title>Fried Fish</title>
<!-- Steam lines -->
<g fill="none" stroke="#FF6B35" stroke-width="10" stroke-linecap="round">
<path d="M 250 190 C 235 160, 265 140, 250 110 C 235 80, 265 60, 255 40"/>
<path d="M 340 190 C 325 160, 355 140, 340 110 C 325 80, 355 60, 345 40"/>
<path d="M 430 190 C 415 160, 445 140, 430 110 C 415 80, 445 60, 435 40"/>
</g>
<!-- Fish body -->
<g fill="#FF6B35">
<path d="M 100 300 C 100 240, 180 200, 280 200 C 380 200, 460 230, 520 260 L 600 210 C 610 205, 620 210, 618 222 L 600 280 L 618 338 C 620 350, 610 355, 600 350 L 520 300 C 460 330, 380 360, 280 360 C 180 360, 100 320, 100 300 Z"/>
</g>
<!-- Eye -->
<circle cx="150" cy="270" r="9" fill="#ffffff"/>
<!-- Scale lines -->
<g fill="none" stroke="#ffffff" stroke-width="4" stroke-linecap="round">
<path d="M 210 235 C 240 255, 270 255, 300 235"/>
<path d="M 220 275 C 250 295, 280 295, 310 275"/>
<path d="M 230 315 C 260 335, 290 335, 320 315"/>
<path d="M 320 230 C 350 250, 380 250, 410 230"/>
<path d="M 330 270 C 360 290, 390 290, 420 270"/>
<path d="M 340 310 C 370 330, 400 330, 430 310"/>
</g>
<!-- Lip/mouth -->
<path d="M 110 300 L 70 285 L 90 300 L 70 315 Z" fill="#FF6B35"/>
</svg>
